<svg version="1.1" class="has-solid " viewBox="0 0 36 36" preserveAspectRatio="xMidYMid meet" xmlns="http://www.w3.org/2000/svg" xmlns:xlink="http://www.w3.org/1999/xlink" focusable="false" role="img" width="40" height="40" fill="currentColor"><path class="clr-i-outline clr-i-outline-path-1" d="M26,34a2,2,0,0,1-1.41-.58L18,26.82l-6.54,6.52A2,2,0,0,1,8,31.93V4a2,2,0,0,1,2-2H26a2,2,0,0,1,2,2V32a2,2,0,0,1-2,2Zm0-2h0V4H10V31.93L18,24Z"/><path class="clr-i-solid clr-i-solid-path-1" d="M26,2H10A2,2,0,0,0,8,4V31.93a2,2,0,0,0,3.42,1.41l6.54-6.52,6.63,6.6A2,2,0,0,0,28,32V4A2,2,0,0,0,26,2Z" style="display:none"/></svg>